<svg xmlns="http://www.w3.org/2000/svg" viewBox="0 0 32 32" width="32" height="32">
  <!-- Fond bleu IUE -->
  <rect width="32" height="32" rx="4" fill="#1A3A6B"/>

  <!-- Coin supérieur gauche -->
  <rect x="3" y="3" width="10" height="10" rx="1.5" fill="#C8A84B"/>
  <rect x="5" y="5" width="6" height="6" rx="0.5" fill="#1A3A6B"/>
  <rect x="6" y="6" width="4" height="4" rx="0.5" fill="#C8A84B"/>

  <!-- Coin supérieur droit -->
  <rect x="19" y="3" width="10" height="10" rx="1.5" fill="#C8A84B"/>
  <rect x="21" y="5" width="6" height="6" rx="0.5" fill="#1A3A6B"/>
  <rect x="22" y="6" width="4" height="4" rx="0.5" fill="#C8A84B"/>

  <!-- Coin inférieur gauche -->
  <rect x="3" y="19" width="10" height="10" rx="1.5" fill="#C8A84B"/>
  <rect x="5" y="21" width="6" height="6" rx="0.5" fill="#1A3A6B"/>
  <rect x="6" y="22" width="4" height="4" rx="0.5" fill="#C8A84B"/>

  <!-- Données intérieures (motif QR simplifié) -->
  <rect x="15" y="3"  width="2" height="2" fill="#C8A84B"/>
  <rect x="3"  y="15" width="2" height="2" fill="#C8A84B"/>
  <rect x="15" y="6"  width="2" height="2" fill="#C8A84B"/>
  <rect x="18" y="15" width="2" height="2" fill="#C8A84B"/>
  <rect x="15" y="9"  width="2" height="2" fill="#C8A84B"/>
  <rect x="6"  y="15" width="2" height="2" fill="#C8A84B"/>
  <rect x="15" y="12" width="2" height="2" fill="#C8A84B"/>
  <rect x="9"  y="15" width="2" height="2" fill="#C8A84B"/>
  <rect x="15" y="15" width="2" height="2" fill="#C8A84B"/>
  <rect x="21" y="15" width="2" height="2" fill="#C8A84B"/>
  <rect x="24" y="15" width="2" height="2" fill="#C8A84B"/>
  <rect x="27" y="15" width="2" height="2" fill="#C8A84B"/>
  <rect x="15" y="18" width="2" height="2" fill="#C8A84B"/>
  <rect x="15" y="21" width="2" height="2" fill="#C8A84B"/>
  <rect x="18" y="18" width="2" height="2" fill="#C8A84B"/>
  <rect x="21" y="21" width="2" height="2" fill="#C8A84B"/>
  <rect x="24" y="18" width="2" height="2" fill="#C8A84B"/>
  <rect x="27" y="21" width="2" height="2" fill="#C8A84B"/>
  <rect x="18" y="24" width="2" height="2" fill="#C8A84B"/>
  <rect x="21" y="27" width="2" height="2" fill="#C8A84B"/>
  <rect x="24" y="24" width="2" height="2" fill="#C8A84B"/>
  <rect x="27" y="27" width="2" height="2" fill="#C8A84B"/>
  <rect x="15" y="24" width="2" height="2" fill="#C8A84B"/>
  <rect x="15" y="27" width="2" height="2" fill="#C8A84B"/>
</svg>
